<svg id="Capa_1" enable-background="new 0 0 512 512" height="512" viewBox="0 0 512 512" width="512" xmlns="http://www.w3.org/2000/svg" xmlns:xlink="http://www.w3.org/1999/xlink"><linearGradient id="SVGID_1_" gradientUnits="userSpaceOnUse" x1="0" x2="512" y1="256" y2="256"><stop offset="0" stop-color="#9dd6fc"/><stop offset=".0056" stop-color="#9dd6fc"/><stop offset="1" stop-color="#d17ff7"/></linearGradient><g><g><path d="m482.689 85.88-56.569-56.568c-39.079-39.079-102.336-39.086-141.421 0l-127.694 127.693c-39.08 39.082-39.084 102.336 0 141.421l42.426 42.427-42.84 42.84-28.284-28.284 14.143-14.143c7.811-7.811 7.81-20.474-.001-28.284-7.811-7.811-20.474-7.811-28.284 0l-28.285 28.285c-7.81 7.811-7.81 20.474 0 28.284l56.568 56.568c7.81 7.81 20.474 7.811 28.285 0 26.271-26.271 101.7-101.7 127.693-127.693 7.81-7.811 7.81-20.474 0-28.284l-42.426-42.426 28.284-28.284 42.427 42.426c23.448 23.449 23.45 61.402 0 84.853l-127.694 127.693c-23.448 23.449-61.402 23.451-84.852 0l-56.569-56.568c-23.447-23.448-23.451-61.402.001-84.853l43.468-43.468c7.811-7.811 7.811-20.474 0-28.284s-20.475-7.811-28.285 0l-43.468 43.468c-39.08 39.082-39.084 102.336 0 141.421l56.568 56.568c39.079 39.079 102.336 39.086 141.421 0l127.694-127.693c39.08-39.082 39.084-102.336 0-141.421l-42.426-42.427 42.84-42.84 28.284 28.284-14.143 14.143c-7.811 7.811-7.81 20.474.001 28.284 7.811 7.811 20.474 7.811 28.284 0l28.284-28.285c7.81-7.811 7.81-20.474 0-28.284l-56.567-56.569c-7.811-7.811-20.475-7.811-28.285 0-26.271 26.271-101.7 101.7-127.693 127.693-7.81 7.811-7.81 20.474 0 28.284l42.426 42.427-28.284 28.284-42.427-42.426c-23.448-23.449-23.45-61.402 0-84.853l127.694-127.693c23.448-23.449 61.402-23.451 84.852 0l56.569 56.568c23.447 23.448 23.451 61.402-.001 84.853l-43.468 43.468c-7.811 7.811-7.811 20.474 0 28.284s20.475 7.811 28.285 0l43.468-43.468c39.081-39.081 39.085-102.336.001-141.421z" fill="url(#SVGID_1_)"/></g></g></svg>