<?xml version="1.0" encoding="iso-8859-1"?>
<!-- Generator: Adobe Illustrator 19.0.0, SVG Export Plug-In . SVG Version: 6.00 Build 0)  -->
<svg version="1.1" id="Capa_1" xmlns="http://www.w3.org/2000/svg" xmlns:xlink="http://www.w3.org/1999/xlink" x="0px" y="0px"
	 viewBox="0 0 512 512" style="enable-background:new 0 0 512 512;" xml:space="preserve">
<linearGradient id="SVGID_1_" gradientUnits="userSpaceOnUse" x1="0.0128" y1="257.9999" x2="511.9872" y2="257.9999" gradientTransform="matrix(1 0 0 -1 0 513.9999)">
	<stop  offset="0" style="stop-color:#00F2FE"/>
	<stop  offset="0.021" style="stop-color:#03EFFE"/>
	<stop  offset="0.293" style="stop-color:#24D2FE"/>
	<stop  offset="0.554" style="stop-color:#3CBDFE"/>
	<stop  offset="0.796" style="stop-color:#4AB0FE"/>
	<stop  offset="1" style="stop-color:#4FACFE"/>
</linearGradient>
<path style="fill:url(#SVGID_1_);" d="M267.987,347c-5.13,0-10.259-1.961-14.166-5.882L128.537,215.402
	c-23.37-23.37-23.37-61.434,0.023-84.828L253.877,5.826c7.828-7.792,20.491-7.765,28.284,0.064
	c7.793,7.828,7.765,20.491-0.063,28.284L156.814,158.89c-7.767,7.766-7.767,20.454,0.032,28.252l125.308,125.74
	c7.798,7.824,7.775,20.487-0.048,28.284C278.202,345.056,273.094,347,267.987,347z M171.106,341.166
	c7.823-7.797,7.846-20.46,0.048-28.284L45.846,187.142c-7.799-7.798-7.799-20.486-0.032-28.252L171.098,34.174
	c7.828-7.793,7.856-20.456,0.063-28.284c-7.792-7.829-20.455-7.856-28.284-0.064L17.561,130.574
	c-23.394,23.394-23.394,61.458-0.023,84.828l125.284,125.716c3.907,3.921,9.036,5.882,14.166,5.882
	C162.094,347,167.202,345.056,171.106,341.166z M511.987,332.5c0-98.977-80.523-179.5-179.5-179.5h-101.5c-11.046,0-20,8.954-20,20
	s8.954,20,20,20h101.5c76.921,0,139.5,62.58,139.5,139.5S409.408,472,332.487,472c-11.046,0-20,8.954-20,20s8.954,20,20,20
	C431.464,512,511.987,431.476,511.987,332.5z"/>
<g>
</g>
<g>
</g>
<g>
</g>
<g>
</g>
<g>
</g>
<g>
</g>
<g>
</g>
<g>
</g>
<g>
</g>
<g>
</g>
<g>
</g>
<g>
</g>
<g>
</g>
<g>
</g>
<g>
</g>
</svg>
