<svg id="Capa_1" enable-background="new 0 0 512 512" height="512" viewBox="0 0 512 512" width="512" xmlns="http://www.w3.org/2000/svg" xmlns:xlink="http://www.w3.org/1999/xlink"><linearGradient id="SVGID_1_" gradientUnits="userSpaceOnUse" x1="256" x2="256" y1="466" y2="46"><stop offset="0" stop-color="#a93aff"/><stop offset="1" stop-color="#ff81ff"/></linearGradient><g><g><g><path d="m449.838 197.255c.784-5.584 1.162-10.937 1.162-16.255 0-74.439-60.561-135-135-135-47.603 0-91.588 25.494-115.756 66.034-11.181-4.01-22.647-6.034-34.244-6.034-53.257 0-97.381 39.854-104.111 91.306-34.101 6.391-61.889 36.338-61.889 73.694 0 41.458 34.535 75 76 75h165v105c0 8.284 6.716 15 15 15s15-6.716 15-15v-105h165c41.457 0 76-33.535 76-75 0-37.092-27.553-67.389-62.162-73.745zm-13.838 118.745h-165v-98.787l34.394 34.393c5.857 5.857 15.355 5.858 21.213 0s5.858-15.355 0-21.213l-59.997-59.998c-5.832-5.832-15.383-5.835-21.218 0l-59.997 59.998c-5.858 5.858-5.858 15.355 0 21.213 5.857 5.858 15.355 5.858 21.213 0l34.392-34.393v98.787h-165c-24.935 0-46-20.607-46-45s21.065-45 46-45c8.284 0 15-6.716 15-15 0-41.355 33.645-75 75-75 11.541 0 23.031 2.913 34.151 8.658 7.598 3.925 16.964.71 20.528-7.094 17.085-37.399 54.501-61.564 95.321-61.564 57.897 0 105 47.103 105 105 0 7.988-1.195 16.326-3.763 26.239-1.164 4.493-.183 9.272 2.658 12.942 5.773 7.459 14.252 5.519 16.104 5.819 24.935 0 46 20.607 46 45s-21.064 45-45.999 45z" fill="url(#SVGID_1_)"/></g></g></g></svg>