<svg id="Layer_1" enable-background="new 0 0 512 512" height="512" viewBox="0 0 512 512" width="512" xmlns="http://www.w3.org/2000/svg" xmlns:xlink="http://www.w3.org/1999/xlink"><linearGradient id="SVGID_1_" gradientUnits="userSpaceOnUse" x1="256" x2="256" y1="512" y2="0"><stop offset="0" stop-color="#a93aff"/><stop offset="1" stop-color="#ff81ff"/></linearGradient><linearGradient id="SVGID_2_" gradientUnits="userSpaceOnUse" x1="256" x2="256" y1="369.995" y2="142.005"><stop offset="0" stop-color="#ffbef9"/><stop offset="1" stop-color="#fff1ff"/></linearGradient><g><path d="m512 256c0 141.385-114.615 256-256 256s-256-114.615-256-256 114.615-256 256-256 256 114.615 256 256z" fill="url(#SVGID_1_)"/><path d="m344.388 365.602-88.388-88.389-88.388 88.388c-5.858 5.858-15.355 5.858-21.213 0-5.858-5.858-5.858-15.355 0-21.213l88.388-88.388-88.388-88.388c-5.858-5.858-5.858-15.355 0-21.213 5.858-5.858 15.355-5.858 21.213 0l88.388 88.388 88.388-88.388c5.858-5.858 15.355-5.858 21.213 0 5.858 5.858 5.858 15.355 0 21.213l-88.388 88.388 88.388 88.388c5.858 5.858 5.858 15.355 0 21.213-5.857 5.859-15.355 5.859-21.213.001z" fill="url(#SVGID_2_)"/></g></svg>